<svg width="36" height="36" viewBox="0 0 36 36" fill="none" xmlns="http://www.w3.org/2000/svg">
<path d="M13.1158 25.1272L13.1077 23.5363L13.6552 22.9831C15.9365 24.9326 18.8942 26.098 22.126 26.0814C29.3101 26.0444 35.1034 20.1912 35.0664 13.0073C35.0295 5.82335 29.1763 0.0299486 21.9922 0.0668956C14.8082 0.103843 9.01487 5.95704 9.05182 13.1411C9.06844 16.3729 10.2643 19.3185 12.2271 21.5797L11.6796 22.1328L10.0987 22.141L0.16464 32.1978L3.16167 35.1642L13.1158 25.1272ZM13.0541 13.1205C13.0285 8.14776 17.0401 4.09474 22.0128 4.06916C26.9855 4.04359 31.0386 8.05513 31.0641 13.0279C31.0897 18.0006 27.0782 22.0536 22.1054 22.0792C17.1327 22.1048 13.0797 18.0932 13.0541 13.1205Z" fill="black"/>
</svg>
